<!-- icons.svg -->
<svg xmlns="http://www.w3.org/2000/svg" style="display:none;">

  <!-- Location Icon -->
  <symbol id="icon-location" height="20" width="14" viewBox="0 0 14 20">
    <path d="M12.797 3.425C11.584 1.33 9.427.05 7.03.002a7.483 7.483 0 00-.308 0C4.325.05 2.17 1.33.955 3.425a6.963 6.963 0 00-.09 6.88l4.959 9.077.007.012c.218.38.609.606 1.045.606.437 0 .828-.226 1.046-.606l.007-.012 4.96-9.077a6.963 6.963 0 00-.092-6.88zm-5.92 5.638c-1.552 0-2.813-1.262-2.813-2.813s1.261-2.812 2.812-2.812S9.69 4.699 9.69 6.25 8.427 9.063 6.876 9.063z" fill="#4b6a9b"/>
  </symbol>

  <!-- Twitter Icon -->
  <symbol id="icon-twitter" height="18" width="20" viewBox="0 0 20 18">
    <path d="M20 2.799a8.549 8.549 0 01-2.363.647 4.077 4.077 0 001.804-2.266 8.194 8.194 0 01-2.6.993A4.099 4.099 0 009.75 4.977c0 .324.027.637.095.934-3.409-.166-6.425-1.8-8.452-4.288a4.128 4.128 0 00-.56 2.072c0 1.42.73 2.679 1.82 3.408A4.05 4.05 0 01.8 6.598v.045a4.119 4.119 0 003.285 4.028 4.092 4.092 0 01-1.075.135c-.263 0-.528-.015-.776-.07.531 1.624 2.038 2.818 3.831 2.857A8.239 8.239 0 01.981 15.34 7.68 7.68 0 010 15.285a11.543 11.543 0 006.29 1.84c7.545 0 11.67-6.25 11.67-11.667 0-.182-.006-.357-.015-.53A8.18 8.18 0 0020 2.798z" fill="#4b6a9b"/>
  </symbol>

  <!-- Blog Icon -->
  <symbol id="icon-blog" height="20" width="20" viewBox="0 0 20 20">
    <g fill="#4b6a9b">
      <path d="M7.404 5.012c-2.355 2.437-1.841 6.482.857 8.273.089.06.207.048.283-.027.568-.555 1.049-1.093 1.47-1.776a.213.213 0 00-.084-.3A2.743 2.743 0 018.878 10.1a2.64 2.64 0 01-.223-1.803c.168-.815 1.043-1.573 1.711-2.274l-.004-.002 2.504-2.555a2.568 2.568 0 013.648-.019 2.6 2.6 0 01.037 3.666l-1.517 1.56a.266.266 0 00-.06.273c.35 1.012.435 2.44.201 3.519-.006.03.031.05.053.028l3.228-3.295c2.062-2.105 2.044-5.531-.04-7.615a5.416 5.416 0 00-7.691.04L7.417 4.998l-.013.014z"/>
      <path d="M13.439 13.75a.401.401 0 00.006-.003c.659-1.204.788-2.586.48-3.933l-.002.002-.001-.001a5.434 5.434 0 00-2.19-3.124.3.3 0 00-.333.015c-.553.448-1.095 1.021-1.452 1.754a.243.243 0 00.096.317c.415.24.79.593 1.04 1.061h.001c.196.33.388.958.263 1.632-.116.894-1.019 1.714-1.736 2.453-.546.559-1.935 1.974-2.49 2.542a2.6 2.6 0 01-3.666.037 2.6 2.6 0 01-.038-3.666l1.521-1.564A.266.266 0 005 11.004c-.338-1.036-.43-2.432-.217-3.51.006-.03-.031-.049-.053-.027l-3.179 3.245c-2.083 2.126-2.066 5.588.04 7.693 2.125 2.083 5.57 2.048 7.653-.078.723-.81 3.821-3.678 4.195-4.577z"/>
    </g>
  </symbol>

  <!-- Company Icon -->
  <symbol id="icon-company" height="20" width="20" viewBox="0 0 20 20">
    <g fill="#4b6a9b">
      <path d="M10.858 1.558L1.7.167A1.477 1.477 0 00.517.492 1.49 1.49 0 000 1.608v17.559c0 .458.375.833.833.833h2.709v-4.375c0-.808.65-1.458 1.458-1.458h2.083c.809 0 1.459.65 1.459 1.458V20h3.541V3a1.46 1.46 0 00-1.225-1.442zM4.583 12.292h-1.25a.625.625 0 010-1.25h1.25a.625.625 0 010 1.25zm0-2.5h-1.25a.625.625 0 010-1.25h1.25a.625.625 0 010 1.25zm0-2.5h-1.25a.625.625 0 010-1.25h1.25a.625.625 0 010 1.25zm0-2.5h-1.25a.625.625 0 010-1.25h1.25a.625.625 0 010 1.25zm4.167 7.5H7.5a.625.625 0 010-1.25h1.25a.625.625 0 010 1.25zm0-2.5H7.5a.625.625 0 010-1.25h1.25a.625.625 0 010 1.25zm0-2.5H7.5a.625.625 0 010-1.25h1.25a.625.625 0 010 1.25zm0-2.5H7.5a.625.625 0 010-1.25h1.25a.625.625 0 010 1.25zM18.85 9.035l-5.933-1.242V20h5.625A1.46 1.46 0 0020 18.542V10.46c0-.688-.47-1.274-1.15-1.425zM16.875 17.5h-1.25a.625.625 0 010-1.25h1.25a.625.625 0 010 1.25zm0-2.5h-1.25a.625.625 0 010-1.25h1.25a.625.625 0 010 1.25zm0-2.5h-1.25a.625.625 0 010-1.25h1.25a.625.625 0 010 1.25z"/>
    </g>
  </symbol>

  <!-- Loader -->
  <symbol id="icon-loader" viewBox="0 0 24 24">
    <path d="M11 2v4c0 0.552 0.448 1 1 1s1-0.448 1-1v-4c0-0.552-0.448-1-1-1s-1 0.448-1 1zM11 18v4c0 0.552 0.448 1 1 1s1-0.448 1-1v-4c0-0.552-0.448-1-1-1s-1 0.448-1 1zM4.223 5.637l2.83 2.83c0.391 0.391 1.024 0.391 1.414 0s0.391-1.024 0-1.414l-2.83-2.83c-0.391-0.391-1.024-0.391-1.414 0s-0.391 1.024 0 1.414zM15.533 16.947l2.83 2.83c0.391 0.391 1.024 0.391 1.414 0s0.391-1.024 0-1.414l-2.83-2.83c-0.391-0.391-1.024-0.391-1.414 0s-0.391 1.024 0 1.414zM2 13h4c0.552 0 1-0.448 1-1s-0.448-1-1-1h-4c-0.552 0-1 0.448-1 1s0.448 1 1 1zM18 13h4c0.552 0 1-0.448 1-1s-0.448-1-1-1h-4c-0.552 0-1 0.448-1 1s0.448 1 1 1zM5.637 19.777l2.83-2.83c0.391-0.391 0.391-1.024 0-1.414s-1.024-0.391-1.414 0l-2.83 2.83c-0.391 0.391-0.391 1.024 0 1.414s1.024 0.391 1.414 0zM16.947 8.467l2.83-2.83c0.391-0.391 0.391-1.024 0-1.414s-1.024-0.391-1.414 0l-2.83 2.83c-0.391 0.391-0.391 1.024 0 1.414s1.024 0.391 1.414 0z"></path>
  </symbol>

    <!-- Error -->
  <symbol id="icon-alert-triangle" viewBox="0 0 24 24">
    <path d="M11.148 4.374c0.073-0.123 0.185-0.242 0.334-0.332 0.236-0.143 0.506-0.178 0.756-0.116s0.474 0.216 0.614 0.448l8.466 14.133c0.070 0.12 0.119 0.268 0.128 0.434-0.015 0.368-0.119 0.591-0.283 0.759-0.18 0.184-0.427 0.298-0.693 0.301l-16.937-0.001c-0.152-0.001-0.321-0.041-0.481-0.134-0.239-0.138-0.399-0.359-0.466-0.607s-0.038-0.519 0.092-0.745zM9.432 3.346l-8.47 14.14c-0.422 0.731-0.506 1.55-0.308 2.29s0.68 1.408 1.398 1.822c0.464 0.268 0.976 0.4 1.475 0.402h16.943c0.839-0.009 1.587-0.354 2.123-0.902s0.864-1.303 0.855-2.131c-0.006-0.536-0.153-1.044-0.406-1.474l-8.474-14.147c-0.432-0.713-1.11-1.181-1.854-1.363s-1.561-0.081-2.269 0.349c-0.429 0.26-0.775 0.615-1.012 1.014zM11 9v4c0 0.552 0.448 1 1 1s1-0.448 1-1v-4c0-0.552-0.448-1-1-1s-1 0.448-1 1zM12 18c0.552 0 1-0.448 1-1s-0.448-1-1-1-1 0.448-1 1 0.448 1 1 1z"></path>
  </symbol>

</svg>
